<svg xmlns="http://www.w3.org/2000/svg" viewBox="0 0 256 256" role="img" aria-label="Kaya infrastructure house icon">
<defs>
  <linearGradient id="kaya-orange" x1="45" y1="22" x2="210" y2="224" gradientUnits="userSpaceOnUse">
    <stop offset="0" stop-color="#FFA733"/>
    <stop offset="0.46" stop-color="#FF8A00"/>
    <stop offset="1" stop-color="#E85A11"/>
  </linearGradient>
  <linearGradient id="server-face" x1="55" y1="111" x2="113" y2="208" gradientUnits="userSpaceOnUse">
    <stop offset="0" stop-color="#171B21"/>
    <stop offset="1" stop-color="#080A0D"/>
  </linearGradient>
  <filter id="kaya-shadow" x="-22%" y="-22%" width="150%" height="160%">
    <feDropShadow dx="0" dy="10" stdDeviation="8" flood-color="#000000" flood-opacity="0.42"/>
  </filter>
</defs>
<g filter="url(#kaya-shadow)">
  <path d="M62 207V88L128 32l66 56h-34l-32-27-45 38v108" fill="none" stroke="url(#kaya-orange)" stroke-width="18" stroke-linecap="round" stroke-linejoin="round"/>
  <path d="M193 88h-57l-40 40 40 40 59 59h-36l-75-75a34 34 0 0 1 0-48l42-42h67" fill="none" stroke="url(#kaya-orange)" stroke-width="18" stroke-linecap="round" stroke-linejoin="round"/>
  <rect x="52" y="113" width="58" height="31" rx="5" fill="url(#server-face)" stroke="#2D333C" stroke-width="3"/>
  <rect x="52" y="151" width="58" height="31" rx="5" fill="url(#server-face)" stroke="#2D333C" stroke-width="3"/>
  <rect x="52" y="189" width="58" height="31" rx="5" fill="url(#server-face)" stroke="#2D333C" stroke-width="3"/>
  <circle cx="65" cy="128.5" r="4.4" fill="#FF8A00"/>
  <circle cx="65" cy="166.5" r="4.4" fill="#FF8A00"/>
  <circle cx="65" cy="204.5" r="4.4" fill="#FF8A00"/>
  <rect x="80" y="126" width="17" height="4" rx="2" fill="#687280"/>
  <rect x="80" y="164" width="17" height="4" rx="2" fill="#687280"/>
  <rect x="80" y="202" width="17" height="4" rx="2" fill="#687280"/>
  <rect x="119" y="76" width="9" height="9" rx="1" fill="#FF8A00"/>
  <rect x="132" y="76" width="9" height="9" rx="1" fill="#FF8A00"/>
  <rect x="119" y="89" width="9" height="9" rx="1" fill="#FF8A00"/>
  <rect x="132" y="89" width="9" height="9" rx="1" fill="#FF8A00"/>
</g>
</svg>
