<svg xmlns="http://www.w3.org/2000/svg" viewBox="0 0 500 140" role="img" aria-label="Kaya wordmark"><rect width="500" height="140" fill="none"/><g transform="translate(22 0)"><g fill="#F8FAFC"><path d="M14 84h22l35-31h28L55 92l47 45H74l-38-36v36H14z"/><path d="M142 137h-24l42-84h22l42 84h-24l-29-59z"/><path d="M259 137h-23l39-43-39-41h25l26 27 26-27h25l-39 41 39 43h-23l-28-30z"/><path d="M374 137h-24l42-84h22l42 84h-24l-29-59z"/></g><circle cx="171" cy="117" r="6" fill="#FF8A00"/><circle cx="403" cy="117" r="6" fill="#FF8A00"/></g></svg>